<mxfile host="app.diagrams.net" agent="Mozilla/5.0 (Windows NT 10.0; Win64; x64) AppleWebKit/537.36 (KHTML, like Gecko) Chrome/134.0.0.0 Safari/537.36" version="26.1.2">
  <diagram id="R2lEEEUBdFMjLlhIrx00" name="Page-1">
    <mxGraphModel dx="1035" dy="1601" grid="1" gridSize="10" guides="1" tooltips="1" connect="1" arrows="1" fold="1" page="1" pageScale="1" pageWidth="850" pageHeight="1100" math="0" shadow="0" extFonts="Permanent Marker^https://fonts.googleapis.com/css?family=Permanent+Marker">
      <root>
        <mxCell id="0" />
        <mxCell id="1" parent="0" />
        <mxCell id="nupWH-TZX9njY6qI5B7A-60" style="edgeStyle=orthogonalEdgeStyle;rounded=0;orthogonalLoop=1;jettySize=auto;html=1;entryX=0.5;entryY=1;entryDx=0;entryDy=0;" parent="1" source="nupWH-TZX9njY6qI5B7A-1" target="nupWH-TZX9njY6qI5B7A-59" edge="1">
          <mxGeometry relative="1" as="geometry" />
        </mxCell>
        <mxCell id="nupWH-TZX9njY6qI5B7A-1" value="&lt;font style=&quot;font-size: 18px;&quot;&gt;Peliculas&lt;/font&gt;" style="rounded=0;whiteSpace=wrap;html=1;" parent="1" vertex="1">
          <mxGeometry x="120" y="80" width="120" height="60" as="geometry" />
        </mxCell>
        <mxCell id="nupWH-TZX9njY6qI5B7A-57" style="edgeStyle=orthogonalEdgeStyle;rounded=0;orthogonalLoop=1;jettySize=auto;html=1;entryX=0;entryY=0.5;entryDx=0;entryDy=0;" parent="1" source="nupWH-TZX9njY6qI5B7A-2" target="nupWH-TZX9njY6qI5B7A-53" edge="1">
          <mxGeometry relative="1" as="geometry">
            <Array as="points">
              <mxPoint x="380" y="-200" />
            </Array>
          </mxGeometry>
        </mxCell>
        <mxCell id="nupWH-TZX9njY6qI5B7A-74" style="edgeStyle=orthogonalEdgeStyle;rounded=0;orthogonalLoop=1;jettySize=auto;html=1;entryX=0;entryY=0.5;entryDx=0;entryDy=0;" parent="1" source="nupWH-TZX9njY6qI5B7A-2" target="nupWH-TZX9njY6qI5B7A-73" edge="1">
          <mxGeometry relative="1" as="geometry">
            <Array as="points">
              <mxPoint x="460" y="110" />
              <mxPoint x="460" y="-300" />
            </Array>
          </mxGeometry>
        </mxCell>
        <mxCell id="nupWH-TZX9njY6qI5B7A-2" value="&lt;font style=&quot;font-size: 18px;&quot;&gt;Clientes&lt;/font&gt;" style="rounded=0;whiteSpace=wrap;html=1;" parent="1" vertex="1">
          <mxGeometry x="320" y="80" width="120" height="60" as="geometry" />
        </mxCell>
        <mxCell id="nupWH-TZX9njY6qI5B7A-65" style="edgeStyle=orthogonalEdgeStyle;rounded=0;orthogonalLoop=1;jettySize=auto;html=1;entryX=0.5;entryY=1;entryDx=0;entryDy=0;" parent="1" source="nupWH-TZX9njY6qI5B7A-3" target="nupWH-TZX9njY6qI5B7A-63" edge="1">
          <mxGeometry relative="1" as="geometry">
            <Array as="points">
              <mxPoint x="680" y="110" />
            </Array>
          </mxGeometry>
        </mxCell>
        <mxCell id="nupWH-TZX9njY6qI5B7A-3" value="&lt;font style=&quot;font-size: 18px;&quot;&gt;Salas&lt;/font&gt;" style="rounded=0;whiteSpace=wrap;html=1;" parent="1" vertex="1">
          <mxGeometry x="520" y="80" width="120" height="60" as="geometry" />
        </mxCell>
        <mxCell id="nupWH-TZX9njY6qI5B7A-4" value="&lt;font style=&quot;font-size: 18px;&quot;&gt;Funciones&lt;/font&gt;" style="rounded=0;whiteSpace=wrap;html=1;" parent="1" vertex="1">
          <mxGeometry x="720" y="80" width="120" height="60" as="geometry" />
        </mxCell>
        <mxCell id="nupWH-TZX9njY6qI5B7A-68" style="edgeStyle=orthogonalEdgeStyle;rounded=0;orthogonalLoop=1;jettySize=auto;html=1;entryX=1;entryY=0.5;entryDx=0;entryDy=0;" parent="1" source="nupWH-TZX9njY6qI5B7A-5" target="nupWH-TZX9njY6qI5B7A-67" edge="1">
          <mxGeometry relative="1" as="geometry">
            <Array as="points">
              <mxPoint x="1080" y="110" />
              <mxPoint x="1080" y="-380" />
            </Array>
          </mxGeometry>
        </mxCell>
        <mxCell id="nupWH-TZX9njY6qI5B7A-5" value="&lt;font style=&quot;font-size: 18px;&quot;&gt;Boletos&lt;/font&gt;" style="rounded=0;whiteSpace=wrap;html=1;" parent="1" vertex="1">
          <mxGeometry x="920" y="80" width="120" height="60" as="geometry" />
        </mxCell>
        <mxCell id="nupWH-TZX9njY6qI5B7A-6" value="ID_movie" style="ellipse;whiteSpace=wrap;html=1;" parent="1" vertex="1">
          <mxGeometry x="120" y="160" width="120" height="50" as="geometry" />
        </mxCell>
        <mxCell id="nupWH-TZX9njY6qI5B7A-7" value="Titulo" style="ellipse;whiteSpace=wrap;html=1;" parent="1" vertex="1">
          <mxGeometry x="120" y="220" width="120" height="50" as="geometry" />
        </mxCell>
        <mxCell id="nupWH-TZX9njY6qI5B7A-8" value="Director" style="ellipse;whiteSpace=wrap;html=1;" parent="1" vertex="1">
          <mxGeometry x="120" y="400" width="120" height="50" as="geometry" />
        </mxCell>
        <mxCell id="nupWH-TZX9njY6qI5B7A-9" value="Estreno" style="ellipse;whiteSpace=wrap;html=1;" parent="1" vertex="1">
          <mxGeometry x="120" y="460" width="120" height="50" as="geometry" />
        </mxCell>
        <mxCell id="nupWH-TZX9njY6qI5B7A-13" value="Clasificación" style="ellipse;whiteSpace=wrap;html=1;" parent="1" vertex="1">
          <mxGeometry x="120" y="580" width="120" height="50" as="geometry" />
        </mxCell>
        <mxCell id="nupWH-TZX9njY6qI5B7A-14" value="Duración" style="ellipse;whiteSpace=wrap;html=1;" parent="1" vertex="1">
          <mxGeometry x="120" y="520" width="120" height="50" as="geometry" />
        </mxCell>
        <mxCell id="nupWH-TZX9njY6qI5B7A-15" value="Descripción" style="ellipse;whiteSpace=wrap;html=1;" parent="1" vertex="1">
          <mxGeometry x="120" y="280" width="120" height="50" as="geometry" />
        </mxCell>
        <mxCell id="nupWH-TZX9njY6qI5B7A-16" value="ID_cliente" style="ellipse;whiteSpace=wrap;html=1;" parent="1" vertex="1">
          <mxGeometry x="320" y="160" width="120" height="50" as="geometry" />
        </mxCell>
        <mxCell id="nupWH-TZX9njY6qI5B7A-17" value="Nombre" style="ellipse;whiteSpace=wrap;html=1;" parent="1" vertex="1">
          <mxGeometry x="320" y="220" width="120" height="50" as="geometry" />
        </mxCell>
        <mxCell id="nupWH-TZX9njY6qI5B7A-18" value="Teléfono" style="ellipse;whiteSpace=wrap;html=1;" parent="1" vertex="1">
          <mxGeometry x="320" y="280" width="120" height="50" as="geometry" />
        </mxCell>
        <mxCell id="nupWH-TZX9njY6qI5B7A-19" value="Mail" style="ellipse;whiteSpace=wrap;html=1;" parent="1" vertex="1">
          <mxGeometry x="320" y="340" width="120" height="50" as="geometry" />
        </mxCell>
        <mxCell id="nupWH-TZX9njY6qI5B7A-23" value="ID_sala" style="ellipse;whiteSpace=wrap;html=1;" parent="1" vertex="1">
          <mxGeometry x="520" y="160" width="120" height="50" as="geometry" />
        </mxCell>
        <mxCell id="nupWH-TZX9njY6qI5B7A-24" value="Nombre sala" style="ellipse;whiteSpace=wrap;html=1;" parent="1" vertex="1">
          <mxGeometry x="520" y="220" width="120" height="50" as="geometry" />
        </mxCell>
        <mxCell id="nupWH-TZX9njY6qI5B7A-25" value="Capacidad" style="ellipse;whiteSpace=wrap;html=1;" parent="1" vertex="1">
          <mxGeometry x="520" y="280" width="120" height="50" as="geometry" />
        </mxCell>
        <mxCell id="nupWH-TZX9njY6qI5B7A-30" value="ID_función" style="ellipse;whiteSpace=wrap;html=1;" parent="1" vertex="1">
          <mxGeometry x="720" y="160" width="120" height="50" as="geometry" />
        </mxCell>
        <mxCell id="nupWH-TZX9njY6qI5B7A-31" value="ID_movie" style="ellipse;whiteSpace=wrap;html=1;" parent="1" vertex="1">
          <mxGeometry x="720" y="220" width="120" height="50" as="geometry" />
        </mxCell>
        <mxCell id="nupWH-TZX9njY6qI5B7A-32" value="ID_sala" style="ellipse;whiteSpace=wrap;html=1;" parent="1" vertex="1">
          <mxGeometry x="720" y="280" width="120" height="50" as="geometry" />
        </mxCell>
        <mxCell id="nupWH-TZX9njY6qI5B7A-33" value="Aforo" style="ellipse;whiteSpace=wrap;html=1;" parent="1" vertex="1">
          <mxGeometry x="720" y="400" width="120" height="50" as="geometry" />
        </mxCell>
        <mxCell id="nupWH-TZX9njY6qI5B7A-37" value="ID_boletos" style="ellipse;whiteSpace=wrap;html=1;" parent="1" vertex="1">
          <mxGeometry x="920" y="160" width="120" height="50" as="geometry" />
        </mxCell>
        <mxCell id="nupWH-TZX9njY6qI5B7A-38" value="ID_cliente" style="ellipse;whiteSpace=wrap;html=1;" parent="1" vertex="1">
          <mxGeometry x="920" y="220" width="120" height="50" as="geometry" />
        </mxCell>
        <mxCell id="nupWH-TZX9njY6qI5B7A-39" value="ID_función" style="ellipse;whiteSpace=wrap;html=1;" parent="1" vertex="1">
          <mxGeometry x="920" y="280" width="120" height="50" as="geometry" />
        </mxCell>
        <mxCell id="nupWH-TZX9njY6qI5B7A-40" value="ID_sala" style="ellipse;whiteSpace=wrap;html=1;" parent="1" vertex="1">
          <mxGeometry x="920" y="340" width="120" height="50" as="geometry" />
        </mxCell>
        <mxCell id="nupWH-TZX9njY6qI5B7A-42" value="Precio" style="ellipse;whiteSpace=wrap;html=1;" parent="1" vertex="1">
          <mxGeometry x="920" y="460" width="120" height="50" as="geometry" />
        </mxCell>
        <mxCell id="nupWH-TZX9njY6qI5B7A-43" value="Asiento" style="ellipse;whiteSpace=wrap;html=1;" parent="1" vertex="1">
          <mxGeometry x="920" y="400" width="120" height="50" as="geometry" />
        </mxCell>
        <mxCell id="nupWH-TZX9njY6qI5B7A-44" value="PK" style="text;html=1;align=center;verticalAlign=middle;whiteSpace=wrap;rounded=0;" parent="1" vertex="1">
          <mxGeometry x="230" y="170" width="60" height="30" as="geometry" />
        </mxCell>
        <mxCell id="nupWH-TZX9njY6qI5B7A-45" value="PK" style="text;html=1;align=center;verticalAlign=middle;whiteSpace=wrap;rounded=0;" parent="1" vertex="1">
          <mxGeometry x="425" y="170" width="60" height="30" as="geometry" />
        </mxCell>
        <mxCell id="nupWH-TZX9njY6qI5B7A-46" value="PK" style="text;html=1;align=center;verticalAlign=middle;whiteSpace=wrap;rounded=0;" parent="1" vertex="1">
          <mxGeometry x="630" y="170" width="60" height="30" as="geometry" />
        </mxCell>
        <mxCell id="nupWH-TZX9njY6qI5B7A-47" value="PK" style="text;html=1;align=center;verticalAlign=middle;whiteSpace=wrap;rounded=0;" parent="1" vertex="1">
          <mxGeometry x="830" y="170" width="60" height="30" as="geometry" />
        </mxCell>
        <mxCell id="nupWH-TZX9njY6qI5B7A-48" value="PK" style="text;html=1;align=center;verticalAlign=middle;whiteSpace=wrap;rounded=0;" parent="1" vertex="1">
          <mxGeometry x="1030" y="170" width="60" height="30" as="geometry" />
        </mxCell>
        <mxCell id="nupWH-TZX9njY6qI5B7A-49" value="FK" style="text;html=1;align=center;verticalAlign=middle;whiteSpace=wrap;rounded=0;" parent="1" vertex="1">
          <mxGeometry x="830" y="230" width="60" height="30" as="geometry" />
        </mxCell>
        <mxCell id="nupWH-TZX9njY6qI5B7A-50" value="FK" style="text;html=1;align=center;verticalAlign=middle;whiteSpace=wrap;rounded=0;" parent="1" vertex="1">
          <mxGeometry x="830" y="290" width="60" height="30" as="geometry" />
        </mxCell>
        <mxCell id="nupWH-TZX9njY6qI5B7A-51" value="FK" style="text;html=1;align=center;verticalAlign=middle;whiteSpace=wrap;rounded=0;" parent="1" vertex="1">
          <mxGeometry x="1030" y="230" width="60" height="30" as="geometry" />
        </mxCell>
        <mxCell id="nupWH-TZX9njY6qI5B7A-52" value="FK" style="text;html=1;align=center;verticalAlign=middle;whiteSpace=wrap;rounded=0;" parent="1" vertex="1">
          <mxGeometry x="1030" y="290" width="60" height="30" as="geometry" />
        </mxCell>
        <mxCell id="nupWH-TZX9njY6qI5B7A-58" style="edgeStyle=orthogonalEdgeStyle;rounded=0;orthogonalLoop=1;jettySize=auto;html=1;entryX=0.5;entryY=0;entryDx=0;entryDy=0;" parent="1" source="nupWH-TZX9njY6qI5B7A-53" target="nupWH-TZX9njY6qI5B7A-5" edge="1">
          <mxGeometry relative="1" as="geometry" />
        </mxCell>
        <mxCell id="nupWH-TZX9njY6qI5B7A-53" value="Cliente puede&amp;nbsp;&lt;div&gt;comprar varios boletos&lt;/div&gt;" style="rhombus;whiteSpace=wrap;html=1;" parent="1" vertex="1">
          <mxGeometry x="600" y="-260" width="160" height="120" as="geometry" />
        </mxCell>
        <mxCell id="nupWH-TZX9njY6qI5B7A-61" style="edgeStyle=orthogonalEdgeStyle;rounded=0;orthogonalLoop=1;jettySize=auto;html=1;entryX=0.5;entryY=0;entryDx=0;entryDy=0;" parent="1" source="nupWH-TZX9njY6qI5B7A-59" target="nupWH-TZX9njY6qI5B7A-3" edge="1">
          <mxGeometry relative="1" as="geometry" />
        </mxCell>
        <mxCell id="nupWH-TZX9njY6qI5B7A-62" style="edgeStyle=orthogonalEdgeStyle;rounded=0;orthogonalLoop=1;jettySize=auto;html=1;entryX=0.5;entryY=0;entryDx=0;entryDy=0;" parent="1" source="nupWH-TZX9njY6qI5B7A-59" target="nupWH-TZX9njY6qI5B7A-4" edge="1">
          <mxGeometry relative="1" as="geometry" />
        </mxCell>
        <mxCell id="nupWH-TZX9njY6qI5B7A-59" value="Peliculas puede tener funciones o salas" style="rhombus;whiteSpace=wrap;html=1;" parent="1" vertex="1">
          <mxGeometry x="100" y="-170" width="160" height="120" as="geometry" />
        </mxCell>
        <mxCell id="nupWH-TZX9njY6qI5B7A-66" style="edgeStyle=orthogonalEdgeStyle;rounded=0;orthogonalLoop=1;jettySize=auto;html=1;entryX=0.25;entryY=0;entryDx=0;entryDy=0;" parent="1" source="nupWH-TZX9njY6qI5B7A-63" target="nupWH-TZX9njY6qI5B7A-4" edge="1">
          <mxGeometry relative="1" as="geometry">
            <Array as="points">
              <mxPoint x="720" y="20" />
              <mxPoint x="720" y="20" />
            </Array>
          </mxGeometry>
        </mxCell>
        <mxCell id="nupWH-TZX9njY6qI5B7A-63" value="Salas puede&amp;nbsp;&lt;div&gt;tener funciones&lt;/div&gt;" style="rhombus;whiteSpace=wrap;html=1;" parent="1" vertex="1">
          <mxGeometry x="600" y="-80" width="160" height="120" as="geometry" />
        </mxCell>
        <mxCell id="nupWH-TZX9njY6qI5B7A-69" style="edgeStyle=orthogonalEdgeStyle;rounded=0;orthogonalLoop=1;jettySize=auto;html=1;entryX=1;entryY=0.5;entryDx=0;entryDy=0;" parent="1" source="nupWH-TZX9njY6qI5B7A-67" target="nupWH-TZX9njY6qI5B7A-4" edge="1">
          <mxGeometry relative="1" as="geometry" />
        </mxCell>
        <mxCell id="nupWH-TZX9njY6qI5B7A-70" style="edgeStyle=orthogonalEdgeStyle;rounded=0;orthogonalLoop=1;jettySize=auto;html=1;entryX=0;entryY=0.5;entryDx=0;entryDy=0;" parent="1" source="nupWH-TZX9njY6qI5B7A-67" target="nupWH-TZX9njY6qI5B7A-3" edge="1">
          <mxGeometry relative="1" as="geometry" />
        </mxCell>
        <mxCell id="nupWH-TZX9njY6qI5B7A-72" style="edgeStyle=orthogonalEdgeStyle;rounded=0;orthogonalLoop=1;jettySize=auto;html=1;entryX=0;entryY=0.5;entryDx=0;entryDy=0;" parent="1" source="nupWH-TZX9njY6qI5B7A-67" target="nupWH-TZX9njY6qI5B7A-1" edge="1">
          <mxGeometry relative="1" as="geometry">
            <Array as="points">
              <mxPoint x="80" y="-380" />
              <mxPoint x="80" y="110" />
            </Array>
          </mxGeometry>
        </mxCell>
        <mxCell id="nupWH-TZX9njY6qI5B7A-67" value="Boleto asociado a una función, cliente, sala o película" style="rhombus;whiteSpace=wrap;html=1;" parent="1" vertex="1">
          <mxGeometry x="800" y="-440" width="160" height="120" as="geometry" />
        </mxCell>
        <mxCell id="nupWH-TZX9njY6qI5B7A-71" style="edgeStyle=orthogonalEdgeStyle;rounded=0;orthogonalLoop=1;jettySize=auto;html=1;entryX=0.175;entryY=0.133;entryDx=0;entryDy=0;entryPerimeter=0;" parent="1" source="nupWH-TZX9njY6qI5B7A-67" target="nupWH-TZX9njY6qI5B7A-2" edge="1">
          <mxGeometry relative="1" as="geometry" />
        </mxCell>
        <mxCell id="nupWH-TZX9njY6qI5B7A-75" style="edgeStyle=orthogonalEdgeStyle;rounded=0;orthogonalLoop=1;jettySize=auto;html=1;entryX=0.25;entryY=0;entryDx=0;entryDy=0;" parent="1" source="nupWH-TZX9njY6qI5B7A-73" target="nupWH-TZX9njY6qI5B7A-5" edge="1">
          <mxGeometry relative="1" as="geometry" />
        </mxCell>
        <mxCell id="nupWH-TZX9njY6qI5B7A-73" value="Que función vio&amp;nbsp;&lt;div&gt;cada cliente&lt;/div&gt;" style="rhombus;whiteSpace=wrap;html=1;" parent="1" vertex="1">
          <mxGeometry x="520" y="-360" width="160" height="120" as="geometry" />
        </mxCell>
        <mxCell id="nupWH-TZX9njY6qI5B7A-76" style="edgeStyle=orthogonalEdgeStyle;rounded=0;orthogonalLoop=1;jettySize=auto;html=1;entryX=0.833;entryY=0;entryDx=0;entryDy=0;entryPerimeter=0;" parent="1" source="nupWH-TZX9njY6qI5B7A-73" target="nupWH-TZX9njY6qI5B7A-4" edge="1">
          <mxGeometry relative="1" as="geometry" />
        </mxCell>
        <mxCell id="nupWH-TZX9njY6qI5B7A-77" value="Categoria" style="ellipse;whiteSpace=wrap;html=1;" parent="1" vertex="1">
          <mxGeometry x="520" y="340" width="120" height="50" as="geometry" />
        </mxCell>
        <mxCell id="im4eLVDFQSYscY8oToT3-1" value="Nacimiento" style="ellipse;whiteSpace=wrap;html=1;" vertex="1" parent="1">
          <mxGeometry x="320" y="400" width="120" height="50" as="geometry" />
        </mxCell>
        <mxCell id="im4eLVDFQSYscY8oToT3-2" value="Medio de pago" style="ellipse;whiteSpace=wrap;html=1;" vertex="1" parent="1">
          <mxGeometry x="920" y="520" width="120" height="50" as="geometry" />
        </mxCell>
        <mxCell id="im4eLVDFQSYscY8oToT3-4" value="Genero" style="ellipse;whiteSpace=wrap;html=1;" vertex="1" parent="1">
          <mxGeometry x="120" y="340" width="120" height="50" as="geometry" />
        </mxCell>
        <mxCell id="im4eLVDFQSYscY8oToT3-5" value="Fecha_hora" style="ellipse;whiteSpace=wrap;html=1;" vertex="1" parent="1">
          <mxGeometry x="720" y="340" width="120" height="50" as="geometry" />
        </mxCell>
      </root>
    </mxGraphModel>
  </diagram>
</mxfile>
